<svg xmlns="http://www.w3.org/2000/svg" xmlns:xlink="http://www.w3.org/1999/xlink" width="256" zoomAndPan="magnify" viewBox="0 0 192 191.999996" height="256" preserveAspectRatio="xMidYMid meet" version="1.0"><defs><clipPath id="e4a13536cb"><path d="M 96 0 C 42.980469 0 0 42.980469 0 96 C 0 149.019531 42.980469 192 96 192 C 149.019531 192 192 149.019531 192 96 C 192 42.980469 149.019531 0 96 0 Z M 96 0 " clip-rule="nonzero"/></clipPath><clipPath id="48e28d98fe"><path d="M 43.421875 48.085938 L 148 48.085938 L 148 144 L 43.421875 144 Z M 43.421875 48.085938 " clip-rule="nonzero"/></clipPath></defs><g clip-path="url(#e4a13536cb)"><rect x="-19.2" width="230.4" fill="#faf5f1" y="-19.2" height="230.399995" fill-opacity="1"/></g><g clip-path="url(#48e28d98fe)"><path fill="#ddb892" d="M 91.019531 64.574219 C 91.019531 64.574219 92.03125 64.628906 92.167969 64.414062 C 92.246094 64.28125 92.207031 63.28125 92.539062 62.679688 C 92.832031 62.144531 93.195312 62.105469 93.472656 61.730469 C 94.222656 60.730469 93.179688 58.78125 92.992188 58.378906 C 92.273438 56.886719 92.191406 54.027344 95.144531 48.085938 C 97.71875 53.308594 97.667969 56.269531 97.066406 58.046875 C 96.90625 58.488281 95.945312 61.117188 96.824219 61.824219 C 97.039062 61.996094 97.199219 61.90625 97.453125 62.144531 C 98.160156 62.785156 98.1875 64.359375 98.28125 64.441406 C 98.375 64.519531 99.28125 64.347656 99.28125 64.667969 L 99.28125 68.804688 C 103.699219 67.683594 108.039062 67.539062 112.539062 68.273438 C 118.078125 69.167969 123.804688 71.941406 129.316406 69.273438 C 130.144531 68.871094 131.773438 67.445312 132.640625 68.070312 C 133.777344 68.886719 131.492188 71.371094 130.8125 71.929688 C 130.53125 72.171875 129.585938 72.636719 129.53125 72.824219 C 129.4375 73.105469 129.476562 74.171875 129.53125 74.507812 L 145.75 114.195312 C 146.003906 114.570312 148.554688 113.488281 147.046875 116.210938 C 144.042969 121.617188 131.855469 123.003906 126.355469 122.710938 C 122.308594 122.5 110.988281 120.121094 110.066406 115.304688 C 109.789062 113.820312 111.097656 114.570312 111.441406 114.035156 L 127.96875 74.761719 L 128.035156 73.453125 C 126.207031 73.730469 124.457031 73.984375 122.578125 73.890625 C 119.507812 73.746094 116.355469 72.757812 113.285156 72.585938 C 109.441406 72.355469 105.316406 72.769531 101.617188 73.851562 C 101.269531 73.960938 99.066406 74.667969 98.988281 74.785156 C 98.828125 75.027344 99.109375 76.363281 98.867188 76.910156 C 98.722656 77.242188 98.148438 77.230469 97.945312 77.441406 C 97.53125 77.898438 97.945312 79.578125 97.945312 80.191406 C 98.171875 91.300781 98.425781 102.378906 98.667969 113.472656 C 98.761719 117.371094 98.722656 121.285156 98.8125 125.167969 C 101.003906 125.234375 100.921875 128.160156 101.683594 129.773438 C 102.511719 131.535156 103.820312 132.816406 105.636719 133.523438 C 107.183594 134.125 108.851562 134.003906 109.988281 135.421875 C 110.253906 135.753906 110.535156 136.59375 110.589844 136.636719 C 110.695312 136.714844 112.699219 136.769531 113.085938 136.835938 C 113.914062 136.984375 114.953125 137.730469 115.433594 138.410156 C 115.59375 138.636719 115.929688 139.503906 115.980469 139.53125 C 116.101562 139.597656 116.515625 139.558594 116.78125 139.664062 C 118.558594 140.386719 119.386719 142.042969 119.292969 143.910156 L 71.246094 143.910156 C 71.195312 142.535156 71.78125 140.933594 72.941406 140.160156 C 73.304688 139.917969 74.25 139.664062 74.410156 139.519531 C 74.53125 139.398438 74.824219 138.636719 75.050781 138.34375 C 75.597656 137.609375 76.546875 136.96875 77.453125 136.824219 C 78.042969 136.730469 79.296875 136.902344 79.710938 136.648438 C 79.804688 136.59375 80.042969 135.835938 80.246094 135.554688 C 81.3125 134.074219 83.300781 134.113281 84.851562 133.472656 C 86.773438 132.683594 87.988281 131.335938 88.800781 129.425781 C 89.484375 127.824219 89.390625 125.664062 91.296875 125.0625 C 91.363281 121.777344 91.339844 118.480469 91.433594 115.195312 C 91.738281 103.382812 91.992188 91.566406 92.300781 79.738281 C 92.300781 79.257812 92.648438 77.855469 92.433594 77.511719 C 92.40625 77.484375 91.980469 77.351562 91.792969 77.203125 C 90.859375 76.441406 91.550781 75.359375 91.21875 74.867188 C 91.058594 74.625 88.054688 73.867188 87.535156 73.757812 C 84.742188 73.144531 81.566406 72.824219 78.710938 72.984375 C 73.570312 73.265625 68.46875 75.574219 63.238281 74.292969 L 63.238281 75.535156 C 68.484375 88.789062 74.304688 101.832031 79.523438 115.117188 C 81.527344 114.753906 81.085938 116.171875 80.351562 117.359375 C 77.203125 122.472656 65.398438 123.859375 59.953125 123.554688 C 55.921875 123.324219 44.75 120.9375 43.773438 116.183594 C 43.441406 114.570312 45.09375 115.382812 45.363281 115.035156 L 61.554688 75.894531 C 61.621094 75.546875 61.703125 73.933594 61.582031 73.730469 C 61.527344 73.652344 60.246094 72.929688 59.941406 72.675781 C 59.234375 72.089844 57.242188 69.953125 58.257812 69.113281 C 59.074219 68.417969 60.78125 69.859375 61.664062 70.246094 C 67.816406 72.890625 74.757812 68.964844 81.019531 68.339844 C 84.316406 68.003906 87.761719 68.273438 90.976562 69.058594 C 91.097656 68.484375 90.816406 64.707031 90.976562 64.5625 Z M 129.238281 114.273438 L 128.144531 77.65625 L 112.816406 114.273438 Z M 144.496094 114.273438 L 129.597656 78.085938 L 130.546875 114.273438 C 130.546875 114.273438 144.496094 114.273438 144.496094 114.273438 Z M 78.230469 115.144531 L 62.96875 78.820312 L 61.957031 115.144531 C 61.957031 115.144531 78.230469 115.144531 78.230469 115.144531 Z M 60.648438 115.144531 L 61.59375 79.390625 L 46.832031 115.144531 Z M 60.648438 115.144531 " fill-opacity="1" fill-rule="nonzero"/></g></svg>